<svg width="24" height="25" viewBox="0 0 24 25" fill="none" xmlns="http://www.w3.org/2000/svg">
<path d="M9 3.38263C9.17928 3.38258 9.35528 3.43073 9.50957 3.52204C9.66386 3.61334 9.79076 3.74445 9.877 3.90163L9.928 4.01163L11.928 9.01163C12.0086 9.21279 12.0216 9.43467 11.9651 9.64388C11.9087 9.85308 11.7858 10.0383 11.615 10.1716L11.515 10.2396L9.841 11.2436L9.904 11.3466C10.7008 12.6116 11.771 13.6819 13.036 14.4786L13.138 14.5406L14.143 12.8686C14.2544 12.6827 14.4231 12.538 14.6239 12.4563C14.8246 12.3746 15.0464 12.3603 15.256 12.4156L15.371 12.4546L20.371 14.4546C20.5375 14.521 20.6831 14.631 20.7925 14.773C20.9019 14.9149 20.9712 15.0837 20.993 15.2616L21 15.3826V19.3826C21 21.0396 19.657 22.3826 17.94 22.3806C9.361 21.8596 2.522 15.0206 2 6.38263C1.99996 5.61742 2.29233 4.88111 2.81728 4.32437C3.34224 3.76762 4.06011 3.43252 4.824 3.38763L5 3.38263H9Z" fill="#322190"/>
</svg>
