<svg width="24" height="24" viewBox="0 0 24 24" fill="none" xmlns="http://www.w3.org/2000/svg">
<path d="M20.8909 2.006L20.9969 2L21.1269 2.008L21.2169 2.024L21.3399 2.059L21.4469 2.105L21.5469 2.162L21.6369 2.229L21.7189 2.304L21.7709 2.363L21.8529 2.479L21.9049 2.575C21.9516 2.675 21.9816 2.78033 21.9949 2.891L21.9999 2.997C21.9999 3.07233 21.9919 3.14567 21.9759 3.217L21.9409 3.34L15.4089 21.417C15.2851 21.6866 15.0865 21.9149 14.8368 22.075C14.587 22.2351 14.2966 22.3201 13.9999 22.32C13.7328 22.3206 13.4701 22.2521 13.2372 22.1212C13.0044 21.9903 12.8093 21.8015 12.6709 21.573L12.6059 21.446L9.25393 14.744L2.58393 11.408C2.33713 11.2951 2.12429 11.1194 1.9667 10.8985C1.80911 10.6775 1.7123 10.4191 1.68593 10.149L1.67993 10C1.67993 9.44 1.98093 8.928 2.52093 8.63L2.66093 8.56L20.6779 2.054L20.7839 2.024L20.8909 2.006Z" fill="#322190"/>
</svg>
