<svg width="24" height="25" viewBox="0 0 24 25" fill="none" xmlns="http://www.w3.org/2000/svg">
<g clip-path="url(#clip0_33_206)">
<path d="M10.5428 24.0005C8.40229 23.723 6.19879 22.805 4.59379 21.5203C0.980292 18.6373 -0.659958 14.0825 0.277542 9.55926C0.679542 7.60626 1.72654 5.55126 3.06679 4.07076C4.05409 2.95964 5.24471 2.04751 6.57454 1.38351C8.34004 0.488761 10.0275 0.0867615 12.0195 0.0867615C13.449 0.0867615 14.598 0.274261 15.9143 0.723511C17.6435 1.31664 19.2144 2.29673 20.5074 3.58906C21.8004 4.88139 22.7813 6.45186 23.3753 8.18076C24.0788 10.2433 24.207 12.4385 23.7578 14.6143C23.3985 16.3333 22.4723 18.2668 21.3323 19.6648C20.8635 20.243 19.785 21.2743 19.2188 21.692C17.5248 22.9501 15.5325 23.7457 13.4378 24.0005C12.8205 24.0785 11.1398 24.0748 10.5428 24.0005ZM13.8128 22.997C16.7365 22.507 19.3459 20.8756 21.0668 18.4618C23.094 15.614 23.637 11.7935 22.4925 8.46201C22.2233 7.68051 21.555 6.37626 21.0668 5.68851C20.5238 4.91901 19.1798 3.57126 18.4065 3.02826C17.6565 2.49726 16.3793 1.85226 15.5078 1.56726C13.9347 1.04462 12.2642 0.882116 10.6198 1.09177C8.97546 1.30142 7.39921 1.87786 6.00754 2.77851C4.69817 3.63863 3.57891 4.75789 2.71879 6.06726C1.81837 7.45818 1.24204 9.03367 1.03239 10.6773C0.822733 12.3209 0.985119 13.9906 1.50754 15.563C1.79629 16.4338 2.44129 17.7155 2.96854 18.4655C3.51529 19.235 4.85929 20.5828 5.62879 21.1258C6.32029 21.6103 7.62079 22.2778 8.40229 22.5515C10.1418 23.1425 12.0001 23.2955 13.8128 22.997ZM9.65629 18.9733C9.09555 18.8887 8.5576 18.6921 8.07454 18.395C7.64104 18.1175 4.36729 14.9105 4.20754 14.6098C4.02379 14.2663 4.34404 13.6408 4.80154 13.4495L5.01604 13.3595L4.35604 12.6875C3.99304 12.3163 3.64879 11.9218 3.59404 11.8123C3.46504 11.5625 3.46129 11.027 3.58204 10.7885C3.63304 10.691 3.75379 10.5425 3.84754 10.46C4.00804 10.3273 4.02304 10.28 4.00804 9.94401C3.98854 9.64701 4.01554 9.53001 4.14454 9.30726C4.33204 8.98701 4.71904 8.77176 5.09779 8.76801C5.30854 8.76801 5.36329 8.74101 5.45329 8.58426C5.68804 8.17401 6.35929 8.02551 6.87154 8.27601L7.14904 8.40876L7.28554 8.27601C7.47304 8.10426 7.84804 7.95201 8.09404 7.95201C8.58604 7.95201 9.28129 8.51826 9.28129 8.91651C9.28129 9.39276 8.84779 9.47526 8.41804 9.08076C8.13304 8.81526 7.98829 8.78751 7.87129 8.97501C7.81279 9.06501 7.95304 9.23301 8.79304 10.0805C9.63304 10.9243 9.78529 11.1043 9.78529 11.264C9.77865 11.3865 9.72652 11.502 9.63912 11.588C9.55171 11.6741 9.43533 11.7243 9.31279 11.729C9.16054 11.729 8.91079 11.51 7.75804 10.3618C6.58204 9.18951 6.36754 9.00201 6.27379 9.06126C6.01954 9.22176 6.10579 9.33876 7.48054 10.7173C8.22679 11.4673 8.84029 12.131 8.84029 12.194C8.84029 12.323 8.72329 12.5615 8.62579 12.6238C8.54581 12.6589 8.4588 12.6751 8.37154 12.671C8.21104 12.6748 7.96504 12.452 6.65704 11.1478C5.34454 9.84276 5.10979 9.63201 5.01604 9.69051C4.75804 9.85476 4.84429 9.96801 6.34054 11.4718C7.15729 12.2885 7.84054 13.019 7.86004 13.097C7.90279 13.238 7.80904 13.484 7.68454 13.5695C7.60193 13.6046 7.51248 13.6208 7.42279 13.6168C7.26229 13.6168 7.05979 13.4413 5.97754 12.359C4.93429 11.3158 4.69204 11.1013 4.55929 11.1133C4.18429 11.156 4.31704 11.324 6.25429 13.2658C7.93429 14.9495 8.14879 15.188 8.14879 15.3635C8.15049 15.4279 8.13599 15.4918 8.10665 15.5492C8.0773 15.6066 8.03403 15.6557 7.98079 15.692C7.68004 15.9305 7.56304 15.8758 6.80479 15.1415C6.41779 14.7703 6.01954 14.411 5.91379 14.3443C5.72254 14.2273 5.23804 14.1763 5.14804 14.27C5.11654 14.297 5.83129 15.0515 6.73429 15.9455C8.23804 17.4335 8.40979 17.5865 8.85154 17.7973C9.25849 17.9999 9.70668 18.106 10.1613 18.1073C10.6159 18.1086 11.0647 18.0051 11.4728 17.8048C12.7343 17.2033 13.434 15.7423 13.0898 14.4178C12.918 13.7578 12.7028 13.4413 11.8358 12.5465C10.836 11.5228 10.605 11.2415 10.359 10.7495C10.0853 10.199 9.96829 9.66351 9.96829 8.99526C9.96829 8.27226 10.0425 7.94451 10.3628 7.26876C10.6673 6.62451 11.304 5.94876 11.9333 5.60076C13.1678 4.91301 14.793 4.97151 15.972 5.74176C16.2068 5.89401 17.0543 6.69126 18.1088 7.74951C19.6755 9.32001 19.8548 9.52326 19.8548 9.70251C19.8548 10.1285 19.5068 10.601 19.1205 10.6985C18.9758 10.7375 19.0035 10.7765 19.6598 11.4448C20.0423 11.8318 20.3978 12.2495 20.4525 12.3785C20.6363 12.8203 20.5538 13.2493 20.2178 13.601C20.046 13.781 20.0228 13.8433 20.0183 14.2025C20.0145 14.519 19.9793 14.6518 19.854 14.8318C19.7551 14.9782 19.6227 15.0989 19.4677 15.1838C19.3127 15.2687 19.1397 15.3154 18.963 15.32C18.7208 15.32 18.6743 15.3433 18.5528 15.527C18.279 15.9493 17.568 16.097 17.1075 15.824L16.8773 15.6875L16.713 15.848C16.35 16.196 15.7635 16.2425 15.3188 15.9575C14.9595 15.731 14.694 15.4145 14.694 15.215C14.694 15.0395 14.9483 14.75 15.1043 14.75C15.2528 14.75 15.4523 14.867 15.6788 15.0785C15.9053 15.293 16.101 15.293 16.1318 15.0748C16.1475 14.9578 15.96 14.735 15.2018 13.973C14.4045 13.1683 14.2523 12.9845 14.2523 12.8285C14.2505 12.7414 14.2666 12.6549 14.2995 12.5743C14.3858 12.4453 14.628 12.3553 14.7758 12.3943C14.8538 12.4138 15.5138 13.0235 16.2368 13.7458C16.9635 14.4725 17.6003 15.0658 17.6588 15.0658C17.8193 15.0658 17.9243 14.9053 17.85 14.7688C17.8148 14.7065 17.2013 14.0773 16.4903 13.3663C15.3773 12.257 15.1973 12.05 15.1973 11.8858C15.1936 11.7973 15.2098 11.7092 15.2445 11.6278C15.3113 11.5303 15.5453 11.4133 15.678 11.4133C15.7365 11.4133 16.4708 12.0965 17.3108 12.9328C18.8498 14.4643 18.963 14.5498 19.1235 14.2963C19.182 14.2025 18.9713 13.964 17.6663 12.6553C16.3185 11.3038 16.1393 11.1005 16.1393 10.925C16.1393 10.8043 16.194 10.679 16.2803 10.601C16.5653 10.3318 16.6515 10.3865 18.0383 11.765C19.3508 13.0738 19.4678 13.1593 19.6283 12.9095C19.6868 12.8158 19.4213 12.527 17.7923 10.8935C16.0185 9.11226 15.8903 8.96751 15.8903 8.76051C15.8903 8.44776 16.0703 8.29926 16.4175 8.32326C16.4798 8.32701 16.8548 8.64351 17.2418 9.02226C17.6325 9.40101 18.054 9.75651 18.1793 9.81126C18.4253 9.91251 18.7103 9.92826 18.8318 9.85026C18.9488 9.77601 15.7065 6.58476 15.285 6.36201C14.9236 6.16695 14.5261 6.04792 14.117 6.01224C13.7079 5.97656 13.2958 6.02498 12.9061 6.15454C12.5164 6.28409 12.1573 6.49203 11.8509 6.76555C11.5446 7.03908 11.2975 7.3724 11.1248 7.74501C10.9215 8.17851 10.8945 8.30751 10.8668 8.86626C10.8435 9.39351 10.863 9.55776 10.9763 9.89376C11.1795 10.4915 11.355 10.7375 12.2655 11.6675C13.2503 12.6755 13.4378 12.9058 13.6875 13.445C14.391 14.945 14.094 16.6798 12.9338 17.8355C12.051 18.722 10.848 19.1368 9.65629 18.9733Z" fill="#322190"/>
</g>
<defs>
<clipPath id="clip0_33_206">
<rect width="24" height="24" fill="white" transform="translate(0 0.0905151)"/>
</clipPath>
</defs>
</svg>
